HIERARCHY
ROOT Hips
{
	OFFSET 0.00000 0.00000 0.00000
	CHANNELS 6 Xposition Yposition Zposition Zrotation Yrotation Xrotation 
	JOINT LHipJoint
	{
		OFFSET 0 0 0
		CHANNELS 3 Zrotation Yrotation Xrotation
		JOINT LeftUpLeg
		{
			OFFSET 1.61024 -1.73873 0.75100
			CHANNELS 3 Zrotation Yrotation Xrotation
			JOINT LeftLeg
			{
				OFFSET 2.29819 -6.31424 0.00000
				CHANNELS 3 Zrotation Yrotation Xrotation
				JOINT LeftFoot
				{
					OFFSET 2.76618 -7.60002 0.00000
					CHANNELS 3 Zrotation Yrotation Xrotation
					JOINT LeftToeBase
					{
						OFFSET 0.16838 -0.46263 2.02361
						CHANNELS 3 Zrotation Yrotation Xrotation
						End Site
						{
							OFFSET 0.00000 -0.00000 1.04662
						}
					}
				}
			}
		}
	}
	JOINT RHipJoint
	{
		OFFSET 0 0 0
		CHANNELS 3 Zrotation Yrotation Xrotation
		JOINT RightUpLeg
		{
			OFFSET -1.46153 -1.73873 0.75100
			CHANNELS 3 Zrotation Yrotation Xrotation
			JOINT RightLeg
			{
				OFFSET -2.38373 -6.54924 0.00000
				CHANNELS 3 Zrotation Yrotation Xrotation
				JOINT RightFoot
				{
					OFFSET -2.80314 -7.70157 0.00000
					CHANNELS 3 Zrotation Yrotation Xrotation
					JOINT RightToeBase
					{
						OFFSET -0.16142 -0.44349 2.02101
						CHANNELS 3 Zrotation Yrotation Xrotation
						End Site
						{
							OFFSET -0.00000 -0.00000 1.04381
						}
					}
				}
			}
		}
	}
	JOINT LowerBack
	{
		OFFSET 0 0 0
		CHANNELS 3 Zrotation Yrotation Xrotation
		JOINT Spine
		{
			OFFSET -0.01629 1.66985 0.14750
			CHANNELS 3 Zrotation Yrotation Xrotation
			JOINT Spine1
			{
				OFFSET 0.02086 1.62378 0.20980
				CHANNELS 3 Zrotation Yrotation Xrotation
				JOINT Neck
				{
					OFFSET 0 0 0
					CHANNELS 3 Zrotation Yrotation Xrotation
					JOINT Neck1
					{
						OFFSET -0.05690 1.78719 0.08702
						CHANNELS 3 Zrotation Yrotation Xrotation
						JOINT Head
						{
							OFFSET 0.16035 1.73871 -0.38470
							CHANNELS 3 Zrotation Yrotation Xrotation
							End Site
							{
								OFFSET 0.05645 1.80914 -0.14081
							}
						}
					}
				}
				JOINT LeftShoulder
				{
					OFFSET 0 0 0
					CHANNELS 3 Zrotation Yrotation Xrotation
					JOINT LeftArm
					{
						OFFSET 2.83089 1.66494 -0.46008
						CHANNELS 3 Zrotation Yrotation Xrotation
						JOINT LeftForeArm
						{
							OFFSET 5.54893 -0.00000 -0.00000
							CHANNELS 3 Zrotation Yrotation Xrotation
							JOINT LeftHand
							{
								OFFSET 3.02898 -0.00000 -0.00000
								CHANNELS 3 Zrotation Yrotation Xrotation
								JOINT LeftFingerBase
								{
									OFFSET 0 0 0
									CHANNELS 3 Zrotation Yrotation Xrotation
									JOINT LeftHandIndex1
									{
										OFFSET 0.64095 -0.00000 -0.00000
										CHANNELS 3 Zrotation Yrotation Xrotation
										End Site
										{
											OFFSET 0.51675 -0.00000 -0.00000
										}
									}
								}
								JOINT LThumb
								{
									OFFSET 0 0 0
									CHANNELS 3 Zrotation Yrotation Xrotation
									End Site
									{
										OFFSET 0.52464 -0.00000 0.52464
									}
								}
							}
						}
					}
				}
				JOINT RightShoulder
				{
					OFFSET 0 0 0
					CHANNELS 3 Zrotation Yrotation Xrotation
					JOINT RightArm
					{
						OFFSET -2.84442 1.45761 -0.18088
						CHANNELS 3 Zrotation Yrotation Xrotation
						JOINT RightForeArm
						{
							OFFSET -5.35190 -0.00000 -0.00000
							CHANNELS 3 Zrotation Yrotation Xrotation
							JOINT RightHand
							{
								OFFSET -3.02531 -0.00000 -0.00000
								CHANNELS 3 Zrotation Yrotation Xrotation
								JOINT RightFingerBase
								{
									OFFSET 0 0 0
									CHANNELS 3 Zrotation Yrotation Xrotation
									JOINT RightHandIndex1
									{
										OFFSET -0.78389 -0.00000 -0.00000
										CHANNELS 3 Zrotation Yrotation Xrotation
										End Site
										{
											OFFSET -0.63199 -0.00000 -0.00000
										}
									}
								}
								JOINT RThumb
								{
									OFFSET 0 0 0
									CHANNELS 3 Zrotation Yrotation Xrotation
									End Site
									{
										OFFSET -0.64164 -0.00000 0.64164
									}
								}
							}
						}
					}
				}
			}
		}
	}
}
MOTION
Frames: 10
Frame Time: 0.0135135
0.00 0.00 0.00 -1160.6100 75.3805 -1130.9600 0.0000 0.0000 0.0000 22.9891 -36.1587 -37.5821 4.0486 12.2248 36.5320 -2.1964 33.6093 -37.1261 0.0450 -1.3685 -3.7634 0.0000 0.0000 0.0000 36.7978 17.2574 -40.0860 -2.1128 -9.0972 26.1000 -0.4289 -0.9993 -12.7736 -0.2000 2.8799 -7.9447 -11.5517 7.5611 9.1311 -8.1779 8.8104 1.4298 -3.4190 4.5540 -3.9672 -0.3234 -1.7522 -11.4613 28.8611 -5.4417 14.4217 9.4896 0.2177 7.3702 -0.0000 0.0000 0.0000 -103.6899 -61.0037 47.2043 117.7459 -56.8813 -83.7771 -0.0000 0.0000 -35.4871 28.6195 30.6219 15.5329 -7.1250 0.0000 -0.0000 -3.4561 63.9400 -1.5873 -0.0000 0.0000 0.0000 123.6793 68.6029 102.0172 -78.8076 59.5213 -50.3227 0.0000 -0.0000 -42.9126 -24.0578 11.7141 -5.1791 7.1250 -0.0000 -0.0000 2.1719 -17.1923 1.4339
0.00 0.00 0.00 -1190.7600 75.3793 -1160.6900 0.0000 0.0000 0.0000 26.1974 -39.5646 -44.4730 4.4748 12.7668 38.5016 -2.4917 32.2756 -32.5616 0.2700 -3.3428 -9.2347 0.0000 0.0000 0.0000 34.5896 15.3631 -43.7545 -2.4765 -9.7950 28.3153 -0.3884 -5.6781 -15.2260 -0.4298 4.2075 -11.6611 -6.4269 7.4607 11.0079 -6.6619 9.0779 2.4248 -4.6969 4.6132 -3.4407 -0.3570 -3.7309 -11.0799 30.3660 -7.9984 12.9915 9.7561 -1.0118 7.3880 0.0000 -0.0000 0.0000 -93.7936 -67.9616 52.7931 102.6978 -59.3819 -70.9738 -0.0000 0.0000 -51.8672 9.7556 36.4817 5.8368 -7.1250 0.0000 -0.0000 -30.4457 64.3492 -14.9238 0.0000 -0.0000 0.0000 129.0352 61.8288 90.1566 -88.6482 59.9931 -58.8293 0.0000 -0.0000 -22.6564 -38.1307 12.7792 -9.8501 7.1250 -0.0000 -0.0000 -7.3412 -13.9894 -5.3941
0.00 0.00 0.00 -1215.8200 73.4794 -1185.3500 0.0000 0.0000 0.0000 26.1809 -42.6568 -51.5188 4.6889 13.0246 39.4606 -2.3195 29.6838 -27.6987 0.4970 -4.5197 -12.5436 0.0000 0.0000 0.0000 28.5075 14.0712 -47.1101 -2.8618 -10.4679 30.5057 -0.0689 -11.6001 -17.4329 -0.2807 3.4075 -9.4154 2.5428 5.8735 15.3651 -5.7570 8.0022 2.5585 -9.0801 3.9734 -4.6161 1.7294 -6.5853 -9.4026 29.4939 -11.5536 10.4664 8.4896 -3.1070 6.6961 -0.0000 0.0000 0.0000 -72.1198 -72.7638 59.8117 95.2456 -59.8958 -64.5412 -0.0000 0.0000 -64.8702 -2.8732 36.9355 -1.7274 -7.1250 0.0000 -0.0000 -43.5335 61.4058 -19.3983 -0.0000 0.0000 0.0000 139.0685 50.0121 73.1919 -105.1936 59.1095 -73.1186 0.0000 -0.0000 -1.6881 -48.8490 19.4645 -20.8716 7.1250 -0.0000 -0.0000 -12.6357 -2.3275 -12.4216
0.00 0.00 0.00 -1221.4100 76.1331 -1190.4900 0.0000 0.0000 0.0000 18.6075 -42.1414 -52.7570 4.6073 12.9274 39.0973 -2.0054 27.4384 -24.9005 0.4445 -4.2775 -11.8587 0.0000 0.0000 0.0000 19.1713 16.6764 -47.6263 -2.9897 -10.6784 31.2029 0.4916 -16.6823 -18.1762 -0.1017 2.0569 -5.6629 5.3413 4.3305 15.4793 -2.9856 6.5536 3.7362 -7.3498 3.2916 -3.6861 0.8278 -7.8248 -9.4652 25.2340 -12.9223 9.3804 6.8640 -4.4037 6.2313 -0.0000 0.0000 0.0000 -79.0879 -73.9396 75.8899 95.2615 -59.8951 -64.5550 -0.0000 0.0000 -64.0985 -6.9332 37.4308 -4.2270 -7.1250 0.0000 -0.0000 -47.8966 60.7460 -21.0982 -0.0000 0.0000 0.0000 139.6725 45.0747 63.2057 -120.6388 56.1373 -86.1899 0.0000 0.0000 5.0003 -56.0625 25.7708 -32.8663 7.1250 -0.0000 -0.0000 -14.8939 9.6723 -17.7428
0.00 0.00 0.00 -1173.8600 86.9789 -1142.6800 0.0000 0.0000 0.0000 -1.0640 -33.8091 -49.8921 4.0245 12.1929 36.4179 -1.1368 22.0832 -21.3558 0.2471 -3.1986 -8.8321 0.0000 0.0000 0.0000 1.4781 23.9278 -48.2158 -3.0461 -10.7694 31.5059 1.3466 -21.4639 -16.5522 -0.0720 1.7316 -4.7644 0.8405 3.1217 14.8281 4.1183 4.6634 4.6259 3.0154 2.3915 -3.6789 -2.7162 -6.9255 -11.1474 12.3152 -10.4360 11.0105 3.4056 -4.2829 5.9929 0.0000 0.0000 0.0000 -106.1961 -70.6734 96.1229 95.1758 -59.8985 -64.4809 -0.0000 0.0000 -56.7879 -11.6292 38.0944 -7.2362 -7.1250 0.0000 -0.0000 -52.9154 60.0342 -23.1456 0.0000 0.0000 0.0000 128.2822 44.5892 55.3909 -128.9893 53.3951 -93.0166 0.0000 0.0000 3.0239 -59.7911 28.8150 -39.6190 7.1250 -0.0000 -0.0000 -15.8828 16.0309 -20.3135
0.00 0.00 0.00 -1072.7800 63.8320 -1037.2100 0.0000 0.0000 0.0000 -19.0374 -20.4152 -47.6301 2.2937 9.4527 27.2221 -1.5996 24.4085 -21.4525 0.2097 -2.9483 -8.1349 0.0000 0.0000 0.0000 -22.5895 35.7267 -56.2693 -2.1583 -9.1883 26.3862 1.2170 -19.5661 -12.1094 -0.5355 4.6891 -13.0238 -15.0058 2.0186 12.8214 8.4855 1.3328 3.5909 18.3145 0.8604 -3.7931 -8.5701 -1.0032 -13.0286 -15.0713 1.7807 4.9307 -3.1467 0.1053 3.7689 0.0000 -0.0000 0.0000 -141.5731 -63.2503 100.3109 102.8130 -59.3705 -71.0729 -0.0000 0.0000 -35.8712 9.0576 30.2856 4.5964 -7.1250 0.0000 -0.0000 -25.0597 58.7791 -8.7893 0.0000 -0.0000 0.0000 95.8986 68.0784 47.8701 -114.6211 57.5807 -81.1493 0.0000 -0.0000 -30.9315 -11.2026 9.5880 -1.8894 7.1250 -0.0000 -0.0000 11.2357 -20.2944 6.7709
0.00 0.00 0.00 -1076.1300 63.6584 -1040.1700 0.0000 0.0000 0.0000 -13.4212 -21.4015 -46.7844 2.3301 9.5222 27.4429 -1.9260 27.2072 -25.1159 0.0999 -2.0378 -5.6102 0.0000 0.0000 0.0000 -16.9462 36.0812 -56.6311 -2.2309 -9.3313 26.8372 0.7855 -16.2565 -11.4580 -0.4647 4.3725 -12.1271 -17.5115 1.9739 12.6542 7.9342 0.8990 3.6588 18.5746 0.5961 -3.5962 -8.3548 1.1549 -13.9157 -17.7934 5.0628 4.5871 -3.7817 1.6095 4.0510 -0.0000 0.0000 0.0000 -144.3061 -59.5865 98.6707 104.7486 -59.1619 -72.7367 -0.0000 0.0000 -27.0037 26.5635 26.0627 12.3889 -7.1250 0.0000 -0.0000 -3.7768 58.6104 -1.2580 -0.0000 0.0000 0.0000 67.3630 74.4816 34.5820 -99.0264 59.6899 -67.8090 0.0000 -0.0000 -43.6639 5.5208 11.2417 1.0795 7.1250 -0.0000 -0.0000 22.4969 -19.0394 15.1339
0.00 0.00 0.00 -1099.6400 78.6649 -1065.0900 0.0000 0.0000 0.0000 11.9558 -35.2943 -40.8677 2.2063 9.2832 26.6853 -4.0605 36.7922 -33.3417 0.0608 -1.5912 -4.3772 0.0000 0.0000 0.0000 11.2281 30.3682 -49.4918 -2.4477 -9.7421 28.1456 0.2862 -12.1782 -12.6841 -0.2074 2.9325 -8.0909 -15.1935 2.5540 12.5691 -0.8023 1.5884 3.6163 7.4485 0.9074 -3.5221 -3.4660 7.0096 -13.1804 -6.3787 10.5866 5.7653 -0.6348 4.8015 4.0359 0.0000 -0.0000 0.0000 -138.5800 -47.7195 80.6541 119.1959 -56.5204 -84.9890 -0.0000 0.0000 -7.9807 61.2792 20.0610 32.0465 -7.1250 0.0000 -0.0000 43.9089 61.5824 19.7874 0.0000 -0.0000 0.0000 19.7412 81.6204 21.3373 -89.7552 59.9998 -59.7880 0.0000 -0.0000 -60.2489 19.1002 9.6958 3.3377 7.1250 -0.0000 -0.0000 31.1184 -19.8420 22.2190
0.00 0.00 0.00 -1133.6700 83.1956 -1099.2500 0.0000 0.0000 0.0000 19.2921 -37.5847 -39.7594 1.9949 8.8555 25.3444 -2.7653 34.9796 -36.8204 0.0112 -0.6839 -1.8793 0.0000 0.0000 0.0000 21.2122 25.3555 -47.2401 -2.2826 -9.4315 27.1547 -0.0113 -9.5572 -13.8077 -0.1269 2.2967 -6.3264 -11.2070 4.1557 11.3191 -8.2876 4.3050 3.0548 -3.1240 2.3451 -3.2390 -0.8531 6.2661 -13.3114 7.3291 8.3293 2.9731 3.1441 4.5524 2.9617 -0.0000 -0.0000 0.0000 -131.1615 -50.9436 72.6762 129.2236 -53.3039 -93.2046 -0.0000 0.0000 -12.0607 58.0094 26.4837 35.5237 -7.1250 0.0000 -0.0000 45.2113 68.0835 27.1186 -0.0000 -0.0000 0.0000 -11.9397 89.4953 -10.4415 -83.5380 59.8416 -54.4067 0.0000 -0.0000 -54.8051 16.7390 11.0837 3.3090 7.1250 -0.0000 -0.0000 29.4590 -18.7792 21.4390
0.00 0.00 0.00 -1135.8200 83.3089 -1101.4500 0.0000 0.0000 0.0000 19.5828 -37.8650 -39.7349 1.9973 8.8604 25.3596 -3.1848 35.6917 -36.0304 0.0363 -1.2292 -3.3797 0.0000 0.0000 0.0000 21.5536 25.0971 -47.1228 -2.2710 -9.4091 27.0836 -0.0117 -9.5317 -13.7783 -0.1420 2.4290 -6.6928 -11.1659 4.1636 11.3630 -8.3867 4.3141 3.0371 -3.2590 2.3539 -3.2711 -0.8982 6.1881 -13.4382 7.6950 8.2254 2.9725 3.2792 4.5242 2.9757 0.0000 -0.0000 0.0000 -130.8747 -51.1485 72.1259 129.2740 -53.2841 -93.2450 -0.0000 0.0000 -11.9141 56.6336 27.1036 34.6770 -7.1250 0.0000 -0.0000 42.7104 68.3837 25.6807 0.0000 -0.0000 0.0000 -53.5518 89.6975 -52.2075 -83.2034 59.8247 -54.1174 0.0000 -0.0000 -54.5901 16.2797 10.8096 3.1350 7.1250 -0.0000 -0.0000 29.2485 -19.0592 21.0139
